<?xml version="1.0" encoding="UTF-8" standalone="no"?>
<!-- Generator: Adobe Illustrator 21.1.0, SVG Export Plug-In . SVG Version: 6.00 Build 0)  -->

<svg
   version="1.1"
   id="Layer_1"
   x="0px"
   y="0px"
   viewBox="0 0 54 54"
   style="enable-background:new 0 0 54 54;"
   xml:space="preserve"
   sodipodi:docname="Instagram_font_awesome.svg"
   inkscape:version="1.2.2 (732a01da63, 2022-12-09)"
   xmlns:inkscape="http://www.inkscape.org/namespaces/inkscape"
   xmlns:sodipodi="http://sodipodi.sourceforge.net/DTD/sodipodi-0.dtd"
   xmlns="http://www.w3.org/2000/svg"
   xmlns:svg="http://www.w3.org/2000/svg"><defs
   id="defs146"><filter
     inkscape:collect="always"
     style="color-interpolation-filters:sRGB"
     id="filter4302"
     x="-0.022023657"
     y="-0.02204205"
     width="1.0440473"
     height="1.0440841"><feGaussianBlur
       inkscape:collect="always"
       stdDeviation="0.2007198"
       id="feGaussianBlur4304" /></filter><filter
     inkscape:collect="always"
     style="color-interpolation-filters:sRGB"
     id="filter4306"
     x="-0.011294364"
     y="-0.011294186"
     width="1.0225887"
     height="1.0225884"><feGaussianBlur
       inkscape:collect="always"
       stdDeviation="0.2007198"
       id="feGaussianBlur4308" /></filter><filter
     inkscape:collect="always"
     style="color-interpolation-filters:sRGB"
     id="filter4310"
     x="-0.095582431"
     y="-0.095034666"
     width="1.1911649"
     height="1.1900693"><feGaussianBlur
       inkscape:collect="always"
       stdDeviation="0.2007198"
       id="feGaussianBlur4312" /></filter></defs><sodipodi:namedview
   id="namedview144"
   pagecolor="#505050"
   bordercolor="#eeeeee"
   borderopacity="1"
   inkscape:showpageshadow="0"
   inkscape:pageopacity="0"
   inkscape:pagecheckerboard="0"
   inkscape:deskcolor="#505050"
   showgrid="false"
   inkscape:zoom="22.627417"
   inkscape:cx="19.158174"
   inkscape:cy="28.0633"
   inkscape:window-width="2560"
   inkscape:window-height="1387"
   inkscape:window-x="-8"
   inkscape:window-y="320"
   inkscape:window-maximized="1"
   inkscape:current-layer="Layer_1" />
<style
   type="text/css"
   id="style135">
	.st0{fill:none;}
</style>
<g
   id="g141">
	<rect
   x="-0.2"
   y="0.1"
   class="st0"
   width="53.8"
   height="53.4"
   id="rect137" />
	<path
   d="M48.1,26.3c0,4.3,0,7.2-0.1,8.8c-0.2,3.9-1.3,6.9-3.5,9s-5.1,3.3-9,3.5c-1.6,0.1-4.6,0.1-8.8,0.1c-4.3,0-7.2,0-8.8-0.1   c-3.9-0.2-6.9-1.3-9-3.5c-2.1-2.1-3.3-5.1-3.5-9c-0.1-1.6-0.1-4.6-0.1-8.8s0-7.2,0.1-8.8c0.2-3.9,1.3-6.9,3.5-9   c2.1-2.1,5.1-3.3,9-3.5c1.6-0.1,4.6-0.1,8.8-0.1c4.3,0,7.2,0,8.8,0.1c3.9,0.2,6.9,1.3,9,3.5s3.3,5.1,3.5,9   C48,19.1,48.1,22,48.1,26.3z M28.8,8.7c-1.3,0-2,0-2.1,0c-0.1,0-0.8,0-2.1,0c-1.3,0-2.3,0-2.9,0c-0.7,0-1.6,0-2.7,0.1   c-1.1,0-2.1,0.1-2.9,0.3c-0.8,0.1-1.5,0.3-2,0.5c-0.9,0.4-1.7,0.9-2.5,1.6c-0.7,0.7-1.2,1.5-1.6,2.5c-0.2,0.5-0.4,1.2-0.5,2   s-0.2,1.7-0.3,2.9c0,1.1-0.1,2-0.1,2.7c0,0.7,0,1.7,0,2.9c0,1.3,0,2,0,2.1s0,0.8,0,2.1c0,1.3,0,2.3,0,2.9c0,0.7,0,1.6,0.1,2.7   c0,1.1,0.1,2.1,0.3,2.9s0.3,1.5,0.5,2c0.4,0.9,0.9,1.7,1.6,2.5c0.7,0.7,1.5,1.2,2.5,1.6c0.5,0.2,1.2,0.4,2,0.5   c0.8,0.1,1.7,0.2,2.9,0.3s2,0.1,2.7,0.1c0.7,0,1.7,0,2.9,0c1.3,0,2,0,2.1,0c0.1,0,0.8,0,2.1,0c1.3,0,2.3,0,2.9,0   c0.7,0,1.6,0,2.7-0.1c1.1,0,2.1-0.1,2.9-0.3c0.8-0.1,1.5-0.3,2-0.5c0.9-0.4,1.7-0.9,2.5-1.6c0.7-0.7,1.2-1.5,1.6-2.5   c0.2-0.5,0.4-1.2,0.5-2c0.1-0.8,0.2-1.7,0.3-2.9c0-1.1,0.1-2,0.1-2.7c0-0.7,0-1.7,0-2.9c0-1.3,0-2,0-2.1s0-0.8,0-2.1   c0-1.3,0-2.3,0-2.9c0-0.7,0-1.6-0.1-2.7c0-1.1-0.1-2.1-0.3-2.9c-0.1-0.8-0.3-1.5-0.5-2c-0.4-0.9-0.9-1.7-1.6-2.5   c-0.7-0.7-1.5-1.2-2.5-1.6c-0.5-0.2-1.2-0.4-2-0.5c-0.8-0.1-1.7-0.2-2.9-0.3c-1.1,0-2-0.1-2.7-0.1C31.1,8.7,30.1,8.7,28.8,8.7z    M34.4,18.5c2.1,2.1,3.2,4.7,3.2,7.8s-1.1,5.6-3.2,7.8c-2.1,2.1-4.7,3.2-7.8,3.2c-3.1,0-5.6-1.1-7.8-3.2c-2.1-2.1-3.2-4.7-3.2-7.8   s1.1-5.6,3.2-7.8c2.1-2.1,4.7-3.2,7.8-3.2C29.7,15.3,32.3,16.3,34.4,18.5z M31.7,31.3c1.4-1.4,2.1-3.1,2.1-5s-0.7-3.7-2.1-5.1   c-1.4-1.4-3.1-2.1-5.1-2.1c-2,0-3.7,0.7-5.1,2.1s-2.1,3.1-2.1,5.1s0.7,3.7,2.1,5c1.4,1.4,3.1,2.1,5.1,2.1   C28.6,33.4,30.3,32.7,31.7,31.3z M39.9,13c0.5,0.5,0.8,1.1,0.8,1.8c0,0.7-0.3,1.3-0.8,1.8c-0.5,0.5-1.1,0.8-1.8,0.8   s-1.3-0.3-1.8-0.8c-0.5-0.5-0.8-1.1-0.8-1.8c0-0.7,0.3-1.3,0.8-1.8c0.5-0.5,1.1-0.8,1.8-0.8S39.4,12.5,39.9,13z"
   id="path139" />
</g>
<path
   style="fill:#e3dedb;stroke-width:0.0525803"
   d="M 25.164771,37.193286 C 22.36479,36.834 19.717371,35.326171 17.930497,33.073028 16.578161,31.367812 15.834165,29.41779 15.660341,27.122923 c -0.150477,-1.986631 0.210473,-3.90454 1.057225,-5.617568 1.533072,-3.101492 4.303212,-5.288119 7.521967,-5.93751 1.688476,-0.340655 3.668347,-0.304019 5.251193,0.09717 2.266549,0.574478 4.112577,1.80353 5.75463,3.831328 1.105874,1.365663 1.85586,3.037779 2.167238,4.831925 0.246121,1.418137 0.179746,3.36669 -0.159966,4.696076 -0.482526,1.888256 -1.493233,3.640242 -2.943962,5.10314 -1.690935,1.705119 -3.783614,2.734057 -6.194027,3.045505 -0.678127,0.08762 -2.336289,0.09903 -2.949868,0.0203 z m 3.123447,-3.953127 c 1.236416,-0.292412 2.280913,-0.849325 3.2177,-1.715638 1.509009,-1.395488 2.303016,-3.1913 2.302713,-5.208065 -2.95e-4,-1.969298 -0.661358,-3.631006 -1.995579,-5.016267 -1.749531,-1.816458 -3.978009,-2.528276 -6.574493,-2.100017 -1.55126,0.255861 -3.073575,1.135575 -4.135186,2.389637 -1.177462,1.390916 -1.704996,2.841392 -1.706153,4.691138 -9.7e-4,1.548579 0.344681,2.756825 1.123265,3.926453 0.35049,0.526523 1.470033,1.629068 2.041859,2.010856 0.851569,0.568561 1.820597,0.951205 2.833956,1.119053 0.71332,0.118152 2.19152,0.06849 2.891918,-0.09715 z"
   id="path375" /><path
   style="fill:#e3dedb;stroke-width:0.0525803"
   d="M 18.666018,47.609511 C 14.149218,47.433728 11.242883,46.400533 9.0378359,44.186718 6.964714,42.105351 5.8434774,39.504762 5.4930424,35.964946 5.3558675,34.579314 5.2969978,30.382794 5.3289247,24.265823 5.3624441,17.843743 5.402604,16.809673 5.6832201,15.143135 6.0305043,13.080666 6.7141836,11.332418 7.7385899,9.8873157 8.1380549,9.3238011 9.116058,8.2950759 9.6991222,7.8251044 11.48933,6.3821298 13.744276,5.4919459 16.457644,5.1570464 17.840553,4.9863598 18.8637,4.959643 25.054528,4.932562 c 6.507883,-0.028468 9.931015,0.021565 11.409932,0.1667705 2.011517,0.1974977 3.597451,0.6106468 5.074002,1.32182 1.339022,0.6449334 2.377133,1.4381437 3.332263,2.5461482 1.666095,1.9327643 2.656029,4.3415783 3.002625,7.3063113 0.128828,1.101977 0.196487,6.166492 0.169991,12.724441 -0.02321,5.745411 -0.0423,6.405202 -0.225107,7.781889 -0.277437,2.089313 -0.869994,3.885021 -1.765174,5.349255 -1.409236,2.305068 -4.008901,4.13557 -6.962401,4.902433 -1.333803,0.346316 -2.535733,0.500987 -4.492801,0.578161 -1.501118,0.05919 -14.409466,0.05897 -15.93184,-2.63e-4 z m 15.037974,-3.731753 c 1.976721,-0.09557 2.578968,-0.152262 3.588906,-0.337861 1.091796,-0.200642 1.694014,-0.367966 2.263063,-0.628784 0.872579,-0.399937 1.965234,-1.15985 2.485701,-1.728739 0.816489,-0.892451 1.478579,-2.229308 1.753778,-3.54114 0.136659,-0.651428 0.361122,-2.646739 0.43405,-3.858371 0.03046,-0.506086 0.06702,-3.653019 0.08125,-6.993184 0.02518,-5.912813 -0.0023,-7.682457 -0.147166,-9.49075 C 44.097507,16.474528 43.785018,14.76995 43.59124,14.176965 43.181305,12.922516 42.206652,11.441594 41.329461,10.740339 40.171981,9.8150115 38.872948,9.2893156 37.201469,9.0698126 34.388253,8.7003736 32.144838,8.62482 25.159688,8.6642701 c -5.384727,0.030411 -7.299834,0.092402 -8.333982,0.2697624 -1.821143,0.312334 -2.412212,0.4731552 -3.209523,0.8732648 -1.568931,0.7873257 -2.651685,1.8233287 -3.323551,3.1800447 -0.4776613,0.964554 -0.6815427,1.69911 -0.8537525,3.075949 -0.3247021,2.596035 -0.3146661,2.274024 -0.3154617,10.121714 -7.193e-4,7.096078 0.033182,8.913444 0.1839105,9.858812 0.1245646,0.781271 0.546073,2.527388 0.7055617,2.922822 0.336949,0.835423 1.043347,1.901242 1.698623,2.562894 0.851491,0.859777 2.29393,1.592215 3.689052,1.873219 0.754365,0.151944 3.32221,0.42311 4.658831,0.491976 0.888836,0.04579 12.648881,0.03117 13.644596,-0.01697 z"
   id="path515" /><path
   style="fill:#e5d2d1;stroke-width:0.053;fill-opacity:1;stroke-dasharray:none"
   d="m 37.568647,17.308124 c -0.599683,-0.153846 -1.262731,-0.651644 -1.658067,-1.244833 -0.219026,-0.328642 -0.366276,-0.834352 -0.366276,-1.257923 0,-0.649637 0.248394,-1.227305 0.745994,-1.734893 1.089629,-1.111502 2.501951,-1.122433 3.596548,-0.02784 0.955651,0.955652 1.027388,2.272084 0.181147,3.324228 -0.279685,0.347738 -0.799557,0.722217 -1.196108,0.861594 -0.378523,0.13304 -0.957276,0.168417 -1.303238,0.07966 z"
   id="path517" /><path
   style="mix-blend-mode:normal;fill:#e5d2d1;fill-opacity:1;stroke-width:0.002;stroke-dasharray:none;filter:url(#filter4302)"
   d="m 25.56633,37.208112 c -0.973492,-0.09546 -1.978919,-0.328911 -2.819625,-0.654678 -1.768206,-0.685166 -3.298176,-1.76153 -4.520887,-3.180533 -1.626207,-1.887275 -2.458046,-4.081442 -2.565844,-6.768008 -0.119391,-2.97547 1.063859,-5.925226 3.253388,-8.110463 2.173607,-2.169346 4.949679,-3.232011 8.155569,-3.121907 2.567281,0.08817 4.713602,0.899041 6.541993,2.471531 2.210432,1.901062 3.567674,4.400006 3.863183,7.112864 0.108629,0.997249 0.03659,2.702254 -0.154108,3.647484 -0.236647,1.172975 -0.811165,2.546287 -1.511543,3.613151 -1.810526,2.757917 -4.419341,4.455672 -7.54163,4.907915 -0.424885,0.06154 -2.323254,0.119638 -2.700496,0.08264 z m 1.734443,-3.820091 c 0.684179,-0.05219 1.068348,-0.125903 1.646411,-0.315894 0.983066,-0.323101 1.865388,-0.860315 2.653799,-1.615801 1.081263,-1.036109 1.765346,-2.239906 2.086813,-3.672211 0.08404,-0.374436 0.09604,-0.560493 0.09605,-1.488582 6e-6,-1.168393 -0.05215,-1.540781 -0.334252,-2.386485 -0.674635,-2.022473 -2.46164,-3.805022 -4.497881,-4.486666 -0.669242,-0.224033 -1.184108,-0.310537 -2.015363,-0.338608 -1.76823,-0.05971 -3.087627,0.306221 -4.452077,1.234776 -1.272165,0.865753 -2.31787,2.248558 -2.765337,3.656789 -0.464912,1.463132 -0.452039,3.307475 0.0331,4.742714 0.149873,0.443386 0.503327,1.146022 0.765351,1.521455 0.281872,0.403872 0.910005,1.066677 1.453664,1.533904 0.740309,0.636232 1.452583,1.029584 2.43308,1.343665 0.897909,0.287626 1.697518,0.36242 2.89664,0.270944 z"
   id="path2022" /><path
   style="mix-blend-mode:normal;fill:#e5d2d1;fill-opacity:1;stroke-width:0.002;stroke-dasharray:none;filter:url(#filter4310)"
   d="m 37.658224,17.298413 c -0.685697,-0.134663 -1.559423,-0.847975 -1.863166,-1.521093 -0.408483,-0.90523 -0.246444,-1.843114 0.44969,-2.602822 0.503895,-0.549913 1.097604,-0.860613 1.71951,-0.899855 0.707724,-0.04466 1.266881,0.19011 1.859966,0.780922 0.562246,0.560092 0.788637,1.055805 0.789697,1.72915 0.0011,0.682777 -0.227065,1.199898 -0.771259,1.748202 -0.634681,0.639474 -1.421734,0.915282 -2.184438,0.765496 z"
   id="path2024" /><path
   style="mix-blend-mode:normal;fill:#e5d2d1;fill-opacity:1;stroke-width:0.002;stroke-dasharray:none;filter:url(#filter4306)"
   d="M 18.760427,47.589267 C 17.585773,47.554479 16.005965,47.380813 14.967519,47.17232 12.549765,46.686897 10.75277,45.790732 9.2232776,44.307655 8.0465661,43.166653 7.2283447,41.980246 6.6152482,40.526057 5.8985383,38.82611 5.5515944,37.095407 5.4325252,34.626135 5.3083479,32.050929 5.344523,18.982742 5.4811544,17.058951 5.5714812,15.787136 5.8230559,14.333053 6.1258951,13.332398 6.5775711,11.839951 7.3414652,10.357186 8.1316765,9.4390544 9.1601954,8.2440383 10.009459,7.5272261 11.212848,6.8384245 c 1.644871,-0.9414993 3.779298,-1.5574729 6.000783,-1.7317642 0.315988,-0.024792 0.673961,-0.053835 0.795495,-0.064541 0.659248,-0.058073 10.833413,-0.110998 13.698718,-0.071259 4.137424,0.057382 5.108148,0.1214363 6.698907,0.4420333 1.909286,0.384792 3.797935,1.2207183 5.080316,2.2485744 0.923806,0.7404511 1.924284,1.914527 2.584986,3.033522 0.935839,1.584979 1.591739,3.684385 1.788034,5.723146 0.112613,1.169613 0.151263,3.923176 0.148262,10.562407 -0.0036,7.974962 -0.02792,8.771032 -0.320061,10.479888 -0.316267,1.849965 -0.967218,3.607509 -1.810871,4.889289 -1.323693,2.011115 -3.573606,3.642264 -6.168952,4.472389 -1.383158,0.442405 -2.829054,0.66141 -4.971844,0.753069 -0.850728,0.03639 -14.807579,0.0487 -15.976194,0.01409 z m 16.020388,-3.746488 c 0.571209,-0.03732 1.287155,-0.09925 1.59099,-0.137628 0.799096,-0.100936 2.004485,-0.350628 2.540857,-0.526331 1.079455,-0.353603 2.467754,-1.235901 3.18204,-2.022262 0.70082,-0.771538 1.332908,-1.98988 1.634561,-3.150598 0.173765,-0.668619 0.400579,-2.474033 0.510668,-4.064835 0.02631,-0.380206 0.05701,-3.414584 0.07197,-7.115262 0.03161,-7.814447 2.21e-4,-8.946973 -0.298225,-10.761281 C 43.85775,15.116691 43.672943,14.307728 43.518963,13.899051 43.104949,12.800227 42.172723,11.407856 41.444239,10.800246 40.504892,10.016758 39.269596,9.4399467 37.960134,9.173369 36.868179,8.9510711 34.6208,8.7544801 32.372232,8.6845635 29.44209,8.593454 20.172005,8.6521887 18.230097,8.7741672 c -0.892779,0.056079 -1.421189,0.1277641 -2.43068,0.329752 -1.074191,0.2149337 -1.465906,0.3383375 -2.165514,0.6822106 -1.664919,0.8183462 -2.732319,1.8621542 -3.440932,3.3648822 -0.4977751,1.055613 -0.6634359,1.789668 -0.9118615,4.040522 -0.1504456,1.363109 -0.1746206,2.597952 -0.1747715,8.927223 -1.414e-4,5.902539 0.037107,8.602922 0.1313666,9.523844 0.052389,0.511839 0.2581502,1.510398 0.5281825,2.563262 0.197936,0.771759 0.4641399,1.365306 0.9320959,2.078264 0.85498,1.302614 1.721735,2.035417 3.118028,2.636159 1.080978,0.46508 1.843372,0.608194 4.679251,0.878371 1.381516,0.131619 2.30704,0.145143 8.79464,0.128512 5.179339,-0.01328 6.657252,-0.02993 7.490913,-0.08439 z"
   id="path2026" /></svg>
